<?xml version="1.0" standalone="no"?>
<!DOCTYPE svg PUBLIC "-//W3C//DTD SVG 1.1//EN" "http://www.w3.org/Graphics/SVG/1.1/DTD/svg11.dtd">
<svg xmlns="http://www.w3.org/2000/svg"><defs><font id="flaticon" horiz-adv-x="512"><font-face units-per-em="512" ascent="448" descent="-64" x-height="240" cap-height="480"/><missing-glyph horiz-adv-x="512"/><glyph unicode="&#xE000;" glyph-name="add120" horiz-adv-x="512" d="M256.00582758542 448C114.83839832457 448 0 333.16742926085 0 191.99417241458c0 -141.16742926085 114.83839832457 -256 256.00582758542 -256c141.17325684627 0 256.00582758542 114.83257073915 256.00582758542 256 C512.00582758542 333.16742926085 397.17325684627 448 256.00582758542 448zM256.00582758542 -17.46090282046c-115.49691547725 0 -209.45507523504 93.958159757791 -209.45507523504 209.45507523504c0 115.46194996472 93.958159757791 209.46090282046 209.45507523504 209.46090282046 c115.50274306267 0 209.46090282046 -93.998952855744 209.46090282046 -209.46090282046C465.46673040588 76.497256937331 371.50857064809 -17.46090282046 256.00582758542 -17.46090282046zM279.27537617519 285.04322884655h-46.53909717954v-69.796990598466H162.92180564092v-46.53909717954h69.80864576931 v-69.831956110997h46.53909717954V168.70714106854h69.814473354731v46.53909717954h-69.814473354731V285.04322884655z"/><glyph unicode="&#xE001;" glyph-name="block21" horiz-adv-x="512" d="M256.00582758542 448C114.83257073915 448 0 333.16742926085 0 191.99417241458c0 -141.16742926085 114.83257073915 -256 256.00582758542 -256c141.16742926085 0 256.00582758542 114.83257073915 256.00582758542 256 C512.00582758542 333.16742926085 397.16742926085 448 256.00582758542 448zM46.53909717954 191.99417241458c0 49.458717475927 17.278790776025 94.954676864941 46.067062760363 130.83512030777l294.22896036787 -294.23478795329 c-35.874615857406 -28.776616813494 -81.364747660998 -46.055407589519 -130.83512030777 -46.055407589519C140.49725693733 -17.46090282046 46.53909717954 76.497256937331 46.53909717954 191.99417241458zM419.43463315805 61.199845204762L125.19984520476 355.41715040178 c35.874615857406 28.770789228073 81.347264904733 46.037924833254 130.80015479524 46.037924833254c115.49691547725 0 209.45507523504 -93.998952855744 209.45507523504 -209.46090282046C465.46090282046 142.54128252407 448.1995948007 97.068633476747 419.43463315805 61.199845204762z"/><glyph unicode="&#xE002;" glyph-name="checkmark9" horiz-adv-x="628" d="M610.39790737036 349.50755500846L530.52937374981 430.56568702877c-22.476319433759 22.81507924296 -61.205231574088 23.311401754116 -83.145837821203 1.0635482381905l-184.58470533928 -187.2869056778L180.77956608709 327.59846130174 c-21.972118787506 22.247853515926 -60.661640252347 21.743652869672 -83.137959686106 -1.1344514540699L17.710047699646 245.40587782736c-23.208985997846 -23.53986767195 -23.658039698415 -61.394306816433 -1.0714263732882 -84.319679950762l204.05157716572 -207.06102477304 c11.439052161871 -11.612371134021 26.557193414371 -18.025173103554 42.557685797815 -18.025173103554c15.409632251116 0 29.795106939529 5.9716264040622 40.580273888291 16.898599784582l307.64117556547 312.23412832744c10.785166948761 10.92697338052 16.73315894753 25.509401446376 16.70164640714 41.179012155716 C628.17098015079 322.51706416372 621.86847207263 337.89518387444 610.39790737036 349.50755500846zM263.33454377597 -5.1424526850285h-0.086659486074781l-103.02237267272 103.75503923681L58.747253423604 203.77781197107l81.002985074627 82.192583474381l102.54180643176 -104.1016771811 c10.871826434836 -11.02938913679 30.141744883828 -11.02938913679 41.013571318664 0L489.52368056624 388.93762117249L570.46364056009 306.74503769811L263.33454377597 -5.1424526850285z"/><glyph unicode="&#xE003;" glyph-name="circular183" horiz-adv-x="512" d="M256.00291375955 448C114.83709124848 448 0 333.16873627062 0 191.99708624045c0 -141.16582251107 114.83709124848 -256.00291375955 256.00291375955 -256.00291375955c141.17165003016 0 256.00291375955 114.83709124848 256.00291375955 256.00291375955 C512 333.16873627062 397.16873627062 448 256.00291375955 448zM256.00291375955 -17.461432522565c-115.495600906 0 -209.45269124392 93.962917857021 -209.45269124392 209.45851876302c0 107.63427764942 81.602749860572 196.52142637635 186.18340750521 208.14149944798 V191.99708624045c0 -12.872989676641 10.413776619356 -23.286766295997 23.269283738718 -23.286766295997h208.13567192889C452.51268509771 64.135489818914 363.62553637078 -17.461432522565 256.00291375955 -17.461432522565z"/><glyph unicode="&#xE004;" glyph-name="circular189" horiz-adv-x="451" d="M409.6 161.28111888112c0 -101.63916083916 -82.67972027972 -184.31888111888 -184.31888111888 -184.31888111888c-101.62237762238 0 -184.31888111888 82.67972027972 -184.31888111888 184.31888111888 c0 99.664335664336 79.597202797203 181.10769230769 178.55664335664 184.17342657343v-61.337062937063l92.167832167832 81.958041958042L219.51328671329 448v-61.627972027972C97.958041958042 383.3006993007 0 283.54685314685 0 161.28111888112 C0 37.040559440559 101.05734265734 -64 225.28111888112 -64s225.28111888112 101.04055944056 225.28111888112 225.28111888112H409.6z"/><glyph unicode="&#xE005;" glyph-name="circular190" horiz-adv-x="512" d="M256.00291375955 448C114.83126372938 448 0 333.16290875152 0 191.99708624045c0 -141.17165003016 114.83126372938 -256.00291375955 256.00291375955 -256.00291375955c141.16582251107 0 256.00291375955 114.83126372938 256.00291375955 256.00291375955 C512 333.16290875152 397.16290875152 448 256.00291375955 448zM256.00291375955 -17.461432522565c-115.50142842509 0 -209.45851876302 93.962917857021 -209.45851876302 209.45851876302c0 115.45480827235 93.957090337928 209.45851876302 209.45851876302 209.45851876302 c115.495600906 0 209.45269124392 -94.003710490673 209.45269124392 -209.45851876302C465.45560500347 76.501485334456 371.49851466554 -17.461432522565 256.00291375955 -17.461432522565zM305.35034543985 175.54017232156l41.148112316325 106.95828543462l-106.95828543462 -41.130629759046 L305.35034543985 175.54017232156zM165.49571472473 101.49571472473l106.95828543462 41.130629759046L206.57972433103 208.45982767844L165.49571472473 101.49571472473z"/><glyph unicode="&#xE006;" glyph-name="circular195" horiz-adv-x="512" d="M256.00291375955 448C114.83126372938 448 0 333.16290875152 0 191.99708624045c0 -141.17165003016 114.83126372938 -256.00291375955 256.00291375955 -256.00291375955s256.00291375955 114.83126372938 256.00291375955 256.00291375955 C512 333.16290875152 397.16873627062 448 256.00291375955 448zM256.00291375955 -17.461432522565c-115.495600906 0 -209.45851876302 93.962917857021 -209.45851876302 209.45851876302c0 115.45480827235 93.962917857021 209.45851876302 209.45851876302 209.45851876302 c115.50142842509 0 209.45851876302 -94.003710490673 209.45851876302 -209.45851876302C465.46143252256 76.501485334456 371.50434218464 -17.461432522565 256.00291375955 -17.461432522565zM279.27219749826 285.03925608077h-46.538567477435v-139.6215299514h46.538567477435v0.040792633651646h69.813678735246 V191.99708624045h-69.813678735246V285.03925608077z"/><glyph unicode="&#xE007;" glyph-name="close36" horiz-adv-x="512" d="M256.00582758542 448C114.83257073915 448 0 333.16742926085 0 191.99417241458c0 -141.16742926085 114.83257073915 -256 256.00582758542 -256s256.00582758542 114.83257073915 256.00582758542 256 C512.00582758542 333.16742926085 397.17325684627 448 256.00582758542 448zM256.00582758542 -17.46090282046c-115.50274306267 0 -209.46090282046 93.958159757791 -209.46090282046 209.45507523504c0 115.46194996472 93.958159757791 209.46090282046 209.46090282046 209.46090282046 c115.49691547725 0 209.46090282046 -93.998952855744 209.46090282046 -209.46090282046C465.46673040588 76.497256937331 371.50274306267 -17.46090282046 256.00582758542 -17.46090282046zM338.27385098682 240.03678663298l-32.541236996062 32.587857679437l-48.86430376289 -48.875958933734 l-48.86430376289 48.875958933734l-32.587857679437 -32.587857679437l48.86430376289 -48.875958933734l-48.86430376289 -48.875958933734l32.541236996062 -32.587857679437l48.887614104578 48.899269275422l48.887614104578 -48.899269275422l32.587857679437 32.587857679437l-48.887614104578 48.899269275422 L338.27385098682 240.03678663298z"/><glyph unicode="&#xE008;" glyph-name="contrast17" horiz-adv-x="512" d="M256.00291375955 448C114.83126372938 448 0 333.16873627062 0 191.99708624045c0 -141.16582251107 114.83126372938 -256.00291375955 256.00291375955 -256.00291375955s256.00291375955 114.83709124848 256.00291375955 256.00291375955 C512 333.16873627062 397.16873627062 448 256.00291375955 448zM256.00291375955 -17.461432522565c-115.50142842509 0 -209.45851876302 93.962917857021 -209.45851876302 209.45851876302c0 115.50142842509 93.957090337928 209.45851876302 209.45851876302 209.45851876302 c115.495600906 0 209.45851876302 -93.957090337928 209.45851876302 -209.45851876302C465.46143252256 76.501485334456 371.49851466554 -17.461432522565 256.00291375955 -17.461432522565zM128.00145687977 191.99708624045 c0 -70.705289156489 57.272857646912 -128.00145687977 128.00145687977 -128.00145687977v256.00291375955C185.27431452668 319.99854312023 128.00145687977 262.66741028238 128.00145687977 191.99708624045z"/><glyph unicode="&#xE009;" glyph-name="crescent22" horiz-adv-x="512" d="M503.0934962378 258.14080309916c-2.6128287268122 9.8155901561996 -11.271399836102 16.770418932678 -21.411209615337 17.272641486007c-10.184310511808 0.76922694876953 -19.389604907 -5.6897365218903 -22.911520027813 -15.136606322481 c-15.181107055055 -40.864386997442 -54.564255382552 -68.276838262683 -98.047828354317 -68.276838262683c-57.749236385309 0 -104.72293824033 46.960987360004 -104.72293824033 104.73565273535c0 43.451786734212 27.450594750304 82.860364051752 68.289552757704 98.041471106807 c9.497727780675 3.5473441108545 15.613399885768 12.778067496089 15.136606322481 22.911520027813c-0.49586530581837 10.139809779235 -7.4761230723385 18.772951898483 -17.247212495965 21.366708882763C299.97943827758 444.99937917505 277.72907199086 448 256.00635724751 448 C114.83731902953 448 0 333.13725198043 0 191.99364275249c0 -141.17539546549 114.83731902953 -256 256.00635724751 -256c141.15632372296 0 256 114.82460453451 256 256 C512 213.72271474335 508.99937917505 235.99851002011 503.0934962378 258.14080309916zM256.00635724751 -17.452233728178c-115.50483001813 0 -209.45223372818 93.94740371005 -209.45223372818 209.44587648067 c0 114.0935210708 91.677866348804 207.18269636693 205.26916486627 209.4077329956c-26.522436613772 -27.634954928108 -42.364697409918 -65.00285579478 -42.364697409918 -104.67843750776c0 -83.413444585165 67.863617174501 -151.27706175967 151.27070451216 -151.27706175967 c39.681938960491 0 77.043482579652 15.816831806104 104.68479475527 42.320196677345C463.15726737689 74.225632620626 370.0935210708 -17.452233728178 256.00635724751 -17.452233728178z"/><glyph unicode="&#xE00A;" glyph-name="cross67" horiz-adv-x="512" d="M499.16755328644 76.456186701893L382.79810061052 193.13030335487L497.57720732622 307.45241410499c8.5549644757042 8.5366846370809 13.289442679139 20.473419258096 12.960405583919 32.763564092494c-0.30466397705499 11.936734621015 -5.2036607280993 23.264141287919 -13.770811762886 31.849572161329 L434.88345412784 434.14388232354c-8.5610577552453 8.5854308734097 -19.845811465362 13.466147785831 -32.976828876433 13.813464719673c-11.936734621015 0 -23.111809299392 -4.6187058921537 -31.258524045842 -12.765420638604c0 0 -64.917800230878 -63.607745129542 -115.45546074476 -114.01744677306 L141.69921572828 434.9238221048c-8.299046734978 8.4087257667178 -20.436859580849 13.63066633344 -32.678258178919 13.027431658872c-11.845335427898 -0.30466397705499 -23.130089138015 -5.185380889476 -31.800825925 -13.813464719673L15.269758529996 372.05945707927 c-8.5366846370809 -8.6280838301974 -13.417401549502 -19.955490497102 -13.679412569769 -31.764266247754c-0.34731693384269 -12.41201042522 4.2287360015233 -24.04408106918 13.112737572447 -33.025575112761c0.042652956787699 0 56.764992204887 -55.369631189975 115.10205053138 -113.5787306461L12.960405583919 76.498839658681 c-8.5793375938686 -8.5366846370809 -13.307722517762 -20.516072214883 -12.942125745296 -32.62951194259c0.2620110202673 -11.979387577802 5.1427279326883 -23.349447201495 13.722065526557 -31.977531031692l61.932093255739 -62.120984921513c8.5854308734097 -8.542777916622 19.864091303986 -13.423494829043 32.958549037809 -13.728158806098 c11.936734621015 0 23.093529460769 4.576052935366 31.435229152534 12.942125745296l115.12642364954 115.44936746522L371.99471598415 -51.015221297916c8.3416996917657 -8.3660728099301 19.516774370143 -12.984778702084 31.453508991158 -12.984778702084h1.1760029514323 c11.936734621015 0.34731693384269 23.227581610673 5.2219405667226 31.782546086377 13.813464719673l61.865067180787 62.041772287479c8.5366846370809 8.4940316802932 13.441774667666 19.821438347198 13.789091601509 31.977531031692 C512.37169005201 56.244778464065 507.77126399848 67.828102871696 499.16755328644 76.456186701893zM404.62422792674 -18.343056398539c-0.45699596558249 -0.43262284741809 -0.88961881300058 -0.56667499732229 -1.0906970378569 -0.56667499732229L270.85846216097 112.22983088769 c-4.3810679900508 4.3566948718864 -10.08437764052 6.4893427112714 -15.769407452367 6.4893427112714c-5.7520558867983 0 -11.52239161222 -2.1813940757138 -15.903459602271 -6.5807419043879L107.41233175051 -18.300403441751L44.700298713509 44.612707820105l132.79084103919 133.18081092982 c8.7804158187249 8.7986956573482 8.7804158187249 23.04478322444 0 31.849572161329C113.8163685482 273.50675378152 46.071286610256 339.60055696383 47.113237411784 340.21597819748L109.85573684649 403.1229961798l129.41516417342 -129.74420126864 c8.7804158187249 -8.7926023778071 23.002130267652 -8.7926023778071 31.782546086377 0c51.18964142478 51.323693574684 130.35352922275 128.87286229426 132.05355421472 128.87286229426l62.785152391493 -62.827805348281L335.11818820141 209.21046806384 c-4.2226427219822 -4.2226427219822 -6.6173015816345 -9.9807918883216 -6.6416746997989 -15.946112559058c0 -6.0079736275245 2.376379021029 -11.766122793864 6.5990217430112 -15.988765515846l131.44422626061 -133.5342211432L404.62422792674 -18.343056398539z"/><glyph unicode="&#xE00B;" glyph-name="download117" horiz-adv-x="490" d="M333.91462980118 147.48169790256H267.13413620276V448h-44.518302097437v-300.51830209744H155.82925960237l89.042685099409 -100.17682130217L333.91462980118 147.48169790256zM485.96156678306 265.43908406375 c-2.3958763866125 5.3025487541272 -5.7829402123566 10.088220622818 -10.003087959334 14.046889474809c-4.1350150834937 3.9525879474572 -8.9997387111333 7.0903346872847 -14.460390983159 9.3037839378608c-5.5397040309746 2.2620964868524 -11.413857811349 3.3931447302786 -17.452196014157 3.3931447302786H344.45891826409v-44.524383001972h100.76058813749 v-256l-1.1675336706335 -11.128055298226H44.518302097437l1.1736145751681 267.12805529823h99.586973562317v44.524383001972H45.69799757714c-6.0444191073422 0 -11.912491983182 -1.1310482434262 -17.494762345899 -3.3931447302786 c-5.4424095584218 -2.213449250576 -10.26456685432 -5.3511959904036 -14.350934701537 -9.2186512743771c-4.2809567923229 -4.0438015154754 -7.6741015226015 -8.8294733841659 -10.130786954559 -14.308368369795C1.2405045250481 259.69871018314 0 253.74550464382 0 247.6524383002v-267.12805529823 c0 -6.1356326753605 1.2405045250481 -12.046271882943 3.7823226204898 -17.786645763557c2.3958763866125 -5.345115085869 5.7829402123566 -10.130786954559 9.9787643411958 -14.083374902017c4.1836623197701 -3.9525879474572 8.9997387111333 -7.0903346872847 14.478633696762 -9.3037839378608 c5.5457849355092 -2.213449250576 11.413857811349 -3.3505783985368 17.458276918692 -3.3505783985368h398.3539751538c6.0383382028077 0 11.912491983182 1.1371291479608 17.525166868572 3.3931447302786c5.3876814176109 2.1708829188342 10.258485949785 5.3086296586617 14.320530178864 9.1760849426352 c4.2809567923229 4.0438015154754 7.6741015226015 8.8294733841659 10.130786954559 14.308368369795c2.456685431958 5.6065939808547 3.7154326706098 11.523314092971 3.7154326706098 17.652865863797V247.6524383002C489.74388940355 253.74550464382 488.4851421649 259.69871018314 485.96156678306 265.43908406375z"/><glyph unicode="&#xE00C;" glyph-name="favorite15" horiz-adv-x="534" d="M532.88965337503 254.17524107376c-3.1958300755799 9.9744592129268 -12.423038832421 16.699713317696 -22.851185822257 16.699713317696H341.83372426375l-51.973937972374 160.47870732343C286.64394057858 441.27474589523 277.43674745895 448 267.01527234819 448 s-19.628668230388 -6.7252541047694 -22.851185822257 -16.646338285119l-51.973937972374 -160.47870732343H24.012092780818c-10.401459473547 0 -19.628668230388 -6.7252541047694 -22.83117018504 -16.646338285119c-3.2158457127965 -9.9210841803492 0.28689080010425 -20.849622100599 8.7068021892103 -26.954391451655 l136.05962991921 -99.224185561637l-51.927234818869 -160.52541047694c-3.2158457127965 -9.9210841803492 0.31357831639302 -20.796247068022 8.7068021892103 -26.901016419077c4.2499869689862 -3.1024237685692 9.1871774824081 -4.6236121970289 14.12436799583 -4.6236121970289 c4.9572061506385 0 9.8943966640605 1.5278603075319 14.117696116758 4.6236121970289l136.05295804014 99.177482408131l136.07964555642 -99.177482408131c8.4465989053948 -6.158144383633 19.842168360698 -6.158144383633 28.235392233516 0 c8.4265832681783 6.1047693510555 11.949335418296 17.033307271306 8.7334897054991 26.901016419077l-51.973937972374 160.52541047694l136.07964555642 99.224185561637C532.57607505864 233.37899400573 536.1121709669 244.30753192598 532.88965337503 254.17524107376zM345.71675788376 156.71910346625 c-8.4199113891061 -6.0980974719833 -11.922647902007 -16.979932238728 -8.7268178264269 -26.901016419077l34.540317956737 -106.60995569455l-90.403961428199 65.87146207975c-4.2232994526974 3.1024237685692 -9.1805056033359 4.6302840761011 -14.117696116758 4.6302840761011 c-4.9638780297107 0 -9.9210841803492 -1.5278603075319 -14.117696116758 -4.6302840761011L162.51363044045 23.201459473547l34.513630440448 106.60995569455c3.1958300755799 9.9210841803492 -0.30690643732082 20.802918947094 -8.7334897054991 26.901016419077l-90.37727391191 65.9315089914h111.72728694292 c10.401459473547 0 19.621996351316 6.7252541047694 22.824498305968 16.699713317696l34.540317956737 106.56992442012l34.513630440448 -106.56992442012c3.2158457127965 -9.9744592129268 12.44972634871 -16.699713317696 22.851185822257 -16.699713317696h111.77399009643L345.71675788376 156.71910346625z"/><glyph unicode="&#xE00D;" glyph-name="folded31" horiz-adv-x="536" d="M486.11894479421 448c-1.8048805869192 0 -3.5897809459389 -0.18648212706176 -5.3547010770592 -0.61938706488371L268.14797856288 399.6811488631L55.52505333264 447.38061293512C53.760133201519 447.81351787294 51.9552526146 448 50.163692179614 448 C22.024871221187 448 0 422.5784900359 0 390.09729954732V42.667776679328c0 -31.242416358812 20.38649253343 -55.951298194495 46.953535563765 -57.809459389146l215.20037462927 -48.29221083303c1.7582600551538 -0.38628440605651 3.5631406420729 -0.56610645715178 5.3547010770592 -0.56610645715178 c0.21312243092773 0 0.42624486185546 0.053280607731932 0.64602736874967 0.053280607731932s0.42624486185546 -0.053280607731932 0.64602736874967 -0.053280607731932c1.7849003590197 0 3.5698007180394 0.17982205109527 5.3547010770592 0.56610645715178l215.20037462927 48.29221083303 c26.567043030335 1.8515011186846 46.953535563765 26.560382954368 46.953535563765 57.809459389146V390.09729954732C536.28929704979 422.5784900359 514.24444560071 448 486.11894479421 448zM243.05281232114 -9.147614339976L55.52505333264 32.904105312451 c-0.785888964046 0.18648212706176 -1.2187939018679 0.23976273479369 -1.5917581559915 0.23976273479369c-0.47952546958739 0 -0.91243040740933 -0.099901139497372 -1.9047817264166 -0.099901139497372C51.189343878454 33.663353972631 48.884957594048 36.993391955877 48.884957594048 42.667776679328V390.09729954732 c0 4.2424683906551 1.3053748894323 7.2395025755763 1.5251573963266 8.4716166293772l192.64935740673 -43.237213174463V-9.147614339976zM487.41099953171 42.667776679328c0 -5.6743847234508 -2.3110463603725 -9.0044227066965 -1.2853946615329 -9.1442843019928 c-1.8048805869192 0 -3.5897809459389 -0.19314220302825 -5.3547010770592 -0.61938706488371l-187.5477392164 -42.045059576461V355.33170300224l192.06993079765 43.104011655133c0.97237109110776 -1.5251573963266 2.1179041573443 -4.3823299859514 2.1179041573443 -8.3384151100473V42.667776679328z"/><glyph unicode="&#xE00E;" glyph-name="full35" horiz-adv-x="573" d="M527.64176857949 280.16707431797h-41.843838193791v22.041768579492c0 24.275446848542 -20.319849482596 44.077516462841 -45.32380056444 44.077516462841H45.329821260583C20.319849482596 346.28033866416 0 326.47826904986 0 302.20884289746v-220.41166509878 c0 -24.317591721543 20.319849482596 -44.071495766698 45.329821260583 -44.071495766698H440.47412982126c25.009971777987 0 45.32380056444 19.753904045155 45.32380056444 44.071495766698v22.041768579492h41.843838193791c24.985888993415 0 45.329821260583 19.759924741298 45.329821260583 44.077516462841V236.07751646284 C572.97158984008 260.35898400753 552.63367826905 280.16707431797 527.64176857949 280.16707431797zM440.47412982126 81.79115710254H44.167826904986l1.1619943555974 220.41166509878h396.3243650047l0.11439322671684 -219.97215428034 C441.75653809972 82.236688617121 441.41335841957 81.79115710254 440.47412982126 81.79115710254zM527.64176857949 147.92248353716h-41.843838193791V236.07751646284h43.011853245532L527.64176857949 147.92248353716zM88.335653809972 125.39905926623h44.167826904986V257.64365004704 h-44.167826904986V125.39905926623zM176.67130761994 125.39905926623h44.143744120414V257.64365004704h-44.143744120414V125.39905926623zM264.98287864534 125.39905926623h44.167826904986V257.64365004704h-44.167826904986V125.39905926623zM353.31853245532 125.39905926623h44.167826904986 V257.64365004704h-44.167826904986V125.39905926623z"/><glyph unicode="&#xE00F;" glyph-name="gps17" horiz-adv-x="512" d="M471.66191283761 212.08454455434C462.08729896766 315.63955883859 379.33070032666 398.30291717411 275.71158333238 407.69105043308V448h-39.376546512025v-40.314777086013C132.71009230699 398.30291717411 49.953493665988 315.6337313195 40.38470731513 212.08454455434H0v-39.376546512025 h40.320604605106c9.2191352052721 -103.95128558258 92.13307686179 -186.98760514005 196.01443221525 -196.3990484754v-40.30894956692h39.376546512025v40.30894956692c103.88135535346 9.405615816251 186.79529700998 92.441935373724 196.01443221525 196.3990484754h40.279811971454v39.376546512025 H471.66191283761zM275.71158333238 15.912769323575v38.211042693406h-39.376546512025v-38.211042693406C154.17867264594 25.038664223358 88.823046016913 90.51084123425 79.88363172811 172.70799804232h38.263490365244v39.376546512025h-38.164422540662 c9.2715828771099 81.82419558611 74.458211452441 146.91175633686 156.34650974857 156.00851364118v-38.251835327058h39.376546512025v38.251835327058c81.894125815227 -9.0909297852241 147.08075439056 -74.178490535972 156.35233726767 -156.00851364118h-38.205215174313v-39.376546512025h38.304282998896 C423.22357413583 90.51084123425 357.86211998771 25.038664223358 275.71158333238 15.912769323575zM256.02622383592 251.45526354727c-32.604969325852 0 -59.061906008491 -26.416144048988 -59.061906008491 -59.038595932119 c0 -32.628279402224 26.456936682639 -59.085216084863 59.061906008491 -59.085216084863s59.061906008491 26.456936682639 59.061906008491 59.085216084863C315.08230232532 225.03911949829 288.62536564268 251.45526354727 256.02622383592 251.45526354727z"/><glyph unicode="&#xE010;" glyph-name="half25" horiz-adv-x="573" d="M527.64176857949 280.16707431797h-41.837817497648v22.041768579492c-0.0060206961429915 24.275446848542 -20.325870178739 44.077516462841 -45.329821260583 44.077516462841H45.329821260583C20.343932267168 346.28033866416 0 326.47826904986 0 302.20884289746v-220.41166509878 c0 -24.317591721543 20.343932267168 -44.071495766698 45.329821260583 -44.071495766698H440.47412982126c25.003951081844 0 45.32380056444 19.753904045155 45.32380056444 44.071495766698v22.041768579492h41.837817497648c24.979868297272 0 45.32380056444 19.759924741298 45.32380056444 44.077516462841V236.07751646284 C572.97158984008 260.35898400753 552.63367826905 280.16707431797 527.64176857949 280.16707431797zM440.47412982126 81.79115710254H44.167826904986l1.1619943555974 220.41166509878h396.30028222013l0.12643461900282 -219.97215428034 C441.768579492 82.236688617121 441.39529633114 81.79115710254 440.47412982126 81.79115710254zM527.64176857949 147.92248353716h-41.837817497648V236.07751646284h43.005832549389L527.64176857949 147.92248353716zM88.335653809972 125.39905926623h44.149764816557V257.64365004704 h-44.149764816557V125.39905926623zM176.65324553151 125.39905926623h44.167826904986V257.64365004704h-44.167826904986V125.39905926623z"/><glyph unicode="&#xE011;" glyph-name="heart263" horiz-adv-x="559" d="M558.8021623983 296.07470103205C558.2779446295 379.93556489925 490.21350952875 448 406.60427019058 448C353.5254737072 448 306.70234259815 420.51002020423 279.4639873314 379.03391033692C252.25359034566 420.51002020423 205.40250095561 448 152.33069404248 448 C68.74242341506 448 0.67798831431224 379.93556489925 0.14678097526347 296.07470103205c-1.1462895211052 -18.592256866707 -2.320537323213 -175.91350406815 263.40195489543 -354.32228471578c4.5432206629171 -3.6415661005843 10.267678698193 -5.7454267460274 16.264729973243 -5.7454267460274 c6.7728935728717 0 13.091465079452 2.6490471249932 17.711571015126 7.1922677879102C561.12269972151 121.00693496423 559.9484519194 277.5313711571 558.8021623983 296.07470103205zM279.4360290504 -7.5242723748157 C43.35630426473 155.74509910992 50.751269589909 291.52449079889 50.821165292415 292.57991590673c0.076885272757058 0.84573800032764 0.13280183476219 1.6914760006553 0.13280183476219 2.5442035712335c0 56.224103096161 45.474144050674 101.94987167586 101.37672691531 101.94987167586 c55.895593294381 0 101.3487686343 -45.725768579697 101.3487686343 -101.94987167586c0 -14.188827608802 11.316114235789 -25.190411183312 25.784524654617 -25.442035712335c14.014088352536 0.10484355375962 25.805493365369 11.246218533282 25.805493365369 25.442035712335 c0 56.224103096161 45.453175339922 101.94987167586 101.32779992355 101.94987167586c55.923551575384 0 101.39769562606 -45.725768579697 101.49554960957 -104.19352372631C508.19767378365 291.52449079889 515.59962867908 155.74509910992 279.4360290504 -7.5242723748157z"/><glyph unicode="&#xE012;" glyph-name="increase8" horiz-adv-x="512" d="M373.42334124548 112.512011135c26.698547230542 35.148421091876 42.599326431953 79.001230318019 42.599326431953 126.53177078802C416.02903053426 354.23694185194 322.71773522065 448 208.00178955348 448C93.311295313607 448 0 354.23694185194 0 239.04378192302 c0 -115.23769992668 93.311295313607 -209.00712093156 208.00178955348 -209.00712093156c48.631314700436 0 93.381286738663 16.893384865846 128.83512495806 45.093566306685l138.48757875899 -139.13022729815l36.898206718282 37.076366709334L373.42334124548 112.512011135zM208.00178955348 77.077261486075 c-88.876384107771 0 -161.19025190451 72.657462065194 -161.19025190451 161.96652043695c0 89.251792660345 72.313867796737 161.90925472554 161.19025190451 161.90925472554c88.895472678241 0 161.20934047498 -72.657462065194 161.20934047498 -161.90925472554 C369.21113002846 149.73472355127 296.89726223172 77.077261486075 208.00178955348 77.077261486075zM231.38528837909 333.07408005766h-46.811537648974v-70.513179315744H114.37871425553v-47.046963351436h70.19503647458v-70.564082170331h46.811537648974v70.564082170331h70.245939329166v47.046963351436 h-70.245939329166V333.07408005766z"/><glyph unicode="&#xE013;" glyph-name="ink11" horiz-adv-x="337" d="M184.0660403131 441.48072834388C179.88811155587 445.65257569099 174.25672577829 448 168.34559513487 448c-5.892886413037 0 -11.524272190614 -2.3474243090117 -15.696119537718 -6.5192716561153C-6.6287370384008 281.55788623487 -0.90613010891901 143.49771353233 0.35272178736445 127.49752348826 c0.54732691142759 -90.576522431139 72.204582437553 -191.49752348826 167.99287334751 -191.49752348826c92.613794823675 0 167.95030347662 75.658823389673 167.86516373484 166.66712593983C336.83714411279 109.62425912508 349.68716371109 275.11767291041 184.0660403131 441.48072834388zM291.87727904408 104.6679098716c0 -68.397619698067 -55.395564846599 -124.05468518013 -123.53168390921 -124.05468518013c-68.440189568956 0 -123.5742537801 80.925324559632 -123.5742537801 147.93030133862c0 0.69328075447494 -0.042569870888812 1.5203525317433 -0.10946538228552 2.2136332862182 C44.546329180079 132.0160112126 35.132306303524 250.54877599743 168.30302526398 393.56529795346C302.027152546 248.42028245299 292.07188416814 107.97619698067 291.87727904408 104.6679098716z"/><glyph unicode="&#xE014;" glyph-name="link46" horiz-adv-x="512" d="M153.90150543762 -19.88051479318L44.9644298808 90.74037137294l120.84532459515 120.82708837916c-8.2123759319941 8.2549271026262 -19.233129125706 12.820059837584 -31.03196086812 12.820059837584c-13.215177850596 0.17020468252838 -23.773946906017 -4.8265184974118 -32.551645533552 -13.604217124947 L13.604217124947 122.15529277675C4.844754713397 113.37759414921 0 101.8644631239 0 89.603647243197c0 -11.780595526428 4.5225815643254 -22.813506197464 12.777508666952 -31.025882129458L122.54737142043 -51.216412594387c8.236690886641 -8.2549271026262 19.233129125706 -12.783587405613 31.03196086812 -12.783587405613 h0.018236215985183c12.212185971411 0 23.773946906017 4.8325972360735 32.515173101581 13.604217124947L274.75290877143 38.232226812936c17.755995630907 17.73168067626 18.12071995061 46.283516170395 0.82670845799497 63.583606401672L153.90150543762 -19.88051479318zM499.17386142375 325.43439236358 L389.41007740894 435.21641259439C381.1733865223 443.43486726504 370.15263332858 448 358.37811654082 448h-0.024314954646911c-12.236500926058 0 -23.773946906017 -4.8690696680439 -32.50909436292 -13.598138386285L237.19846131928 345.77993066439 c-17.755995630907 -17.780310585553 -18.126798689272 -46.289594909056 -0.82670845799497 -63.589685140333L358.02554969844 403.83796362255l108.95531177281 -110.6087286888l-120.84532459515 -120.82708837916c8.2184546706558 -8.2184546706558 19.233129125706 -12.783587405613 31.013724652135 -12.783587405613h0.042551170632094 c12.212185971411 0 23.773946906017 4.8265184974118 32.533409317567 13.604217124947l88.603694733343 88.621930949328c8.7716198888731 8.7776986275348 13.622453340932 20.296908391509 13.622453340932 32.50909436292C511.95137009071 306.18302702189 507.4105523104 317.21593769293 499.17386142375 325.43439236358zM164.41772332241 131.8508809422l31.3845277105 -31.378448971838l143.86550790711 143.85942916845l-31.360212755853 31.378448971838L164.41772332241 131.8508809422z"/><glyph unicode="&#xE015;" glyph-name="lock58" horiz-adv-x="451" d="M409.15511392239 312.18647814572H346.98312504104V427.12285232769c0 11.542384381361 -9.194685810589 20.877147672306 -20.51294622338 20.877147672306H121.34631968307c-11.335069710434 0 -20.507343124166 -9.3347632909453 -20.507343124166 -20.877147672306v-114.94197728118H42.10729059511 C18.893650550461 312.18647814572 0 293.43850817483 0 270.36494561054V-22.212086060102c0 -23.034340869794 18.893650550461 -41.787913939898 42.10729059511 -41.787913939898h367.05342642649c23.219243143864 0 42.10729059511 18.753573070104 42.10729059511 41.787913939898V270.36494561054 C451.2624045175 293.43850817483 432.37435706625 312.18647814572 409.15511392239 312.18647814572zM141.85926590645 406.2120860601h164.09236358861v-94.025607914378H141.85926590645V406.2120860601zM409.15511392239 -22.212086060102H41.020289347545l1.0813981483508 292.57703167064h368.12922147563 l0.1064588850708 -292.17921162643C410.3373678566 -21.81426601589 410.01799120138 -22.212086060102 409.15511392239 -22.212086060102zM225.63120225875 188.63253737223c-22.653330123224 0 -41.020289347545 -18.703145177176 -41.020289347545 -41.782310840684 c0 -15.458950732124 8.264571341023 -28.940007441616 20.51294622338 -36.179211626431v-47.430234848651h41.020289347545v47.430234848651c12.253977981571 7.2392041848147 20.51294622338 20.720260894307 20.51294622338 36.179211626431 C266.65709470551 169.92939219506 248.28453238197 188.63253737223 225.63120225875 188.63253737223z"/><glyph unicode="&#xE016;" glyph-name="low30" horiz-adv-x="573" d="M527.64176857949 280.16707431797h-41.843838193791v22.041768579492c0 24.275446848542 -20.319849482596 44.077516462841 -45.32380056444 44.077516462841H45.329821260583C20.343932267168 346.28033866416 0 326.47826904986 0 302.20884289746v-220.41166509878 c0 -24.317591721543 20.343932267168 -44.071495766698 45.329821260583 -44.071495766698H440.47412982126c25.003951081844 0 45.317779868297 19.753904045155 45.317779868297 44.071495766698v22.041768579492h41.843838193791c24.979868297272 0 45.32380056444 19.759924741298 45.32380056444 44.077516462841V236.07751646284 C572.97158984008 260.35898400753 552.63367826905 280.16707431797 527.64176857949 280.16707431797zM440.47412982126 81.79115710254H44.167826904986l1.1619943555974 220.41166509878h396.29426152399l0.12643461900282 -219.97215428034 C441.75653809972 82.236688617121 441.389275635 81.79115710254 440.47412982126 81.79115710254zM527.64176857949 147.92248353716h-41.843838193791V236.07751646284h43.011853245532L527.64176857949 147.92248353716zM88.335653809972 125.39905926623h44.143744120414V257.64365004704 h-44.143744120414V125.39905926623z"/><glyph unicode="&#xE017;" glyph-name="minus70" horiz-adv-x="512" d="M256.00582758542 448C114.83257073915 448 0 333.16742926085 0 191.99417241458c0 -141.16742926085 114.83257073915 -256 256.00582758542 -256s256.00582758542 114.83257073915 256.00582758542 256 C512.00582758542 333.16742926085 397.17325684627 448 256.00582758542 448zM256.00582758542 -17.46090282046c-115.49691547725 0 -209.46090282046 93.958159757791 -209.46090282046 209.45507523504c0 115.46194996472 93.963987343213 209.46090282046 209.46090282046 209.46090282046 c115.50274306267 0 209.46090282046 -93.998952855744 209.46090282046 -209.46090282046C465.46673040588 76.497256937331 371.50857064809 -17.46090282046 256.00582758542 -17.46090282046zM162.92180564092 168.70714106854h186.168043889v46.53909717954H162.92180564092V168.70714106854z"/><glyph unicode="&#xE018;" glyph-name="minus71" horiz-adv-x="512" d="M373.42334124548 112.512011135c26.698547230542 35.148421091876 42.599326431953 79.001230318019 42.599326431953 126.53177078802C416.02903053426 354.23694185194 322.71773522065 448 208.00178955348 448C93.311295313607 448 0 354.23694185194 0 239.04378192302 c0 -115.23769992668 93.311295313607 -209.00712093156 208.00178955348 -209.00712093156c48.631314700436 0 93.37492388184 16.893384865846 128.83512495806 45.087203449861l138.48757875899 -139.12386444132l36.898206718282 37.076366709334L373.42334124548 112.512011135zM208.00178955348 77.077261486075 c-88.876384107771 0 -161.19025190451 72.657462065194 -161.19025190451 161.96652043695c0 89.251792660345 72.313867796737 161.90925472554 161.19025190451 161.90925472554S369.21113002846 328.30193744019 369.21113002846 239.04378192302 C369.21113002846 149.73472355127 296.87817366125 77.077261486075 208.00178955348 77.077261486075zM114.37871425553 215.52030024731h187.25251345272v47.046963351436H114.37871425553V215.52030024731z"/><glyph unicode="&#xE019;" glyph-name="monitor61" horiz-adv-x="451" d="M409.60559440559 448H40.962237762238C18.360839160839 448 0 429.6 0 407.04335664336v-286.71888111888c0 -22.601398601399 18.360839160839 -40.962237762238 40.962237762238 -40.962237762238h368.64335664336c22.573426573427 0 40.956643356643 18.360839160839 40.956643356643 40.962237762238 V407.04335664336C450.56223776224 429.6 432.17902097902 448 409.60559440559 448zM40.962237762238 120.32447552448V407.04335664336h368.64335664336l0.016783216783217 -286.71888111888H40.962237762238zM296.96223776224 38.4H153.6v-61.437762237762H83.641958041958 v-40.956643356643h286.71888111888v40.956643356643h-73.398601398601V38.4z"/><glyph unicode="&#xE01A;" glyph-name="move18" horiz-adv-x="512" d="M444.22467252051 42.342996977112L294.67085072693 191.9041888585L444.43840506694 341.65700302289L502.29359435728 283.80181373255L511.99262991219 447.78626745358L347.9492154887 438.14619260112L405.82651504246 380.26889304736L256.07370087808 230.50870879516L106.12189434288 380.47525550597L164.01393407226 438.35255505974L0 448L9.647444940262 284.00817619116L67.510004318411 341.87073556931L217.47655102922 191.9041888585L67.731106952641 42.15874478192L9.8538073988772 100.04341442349L0.20636245861523 -64L164.22766661868 -54.352555059738L106.32088671369 3.5615949330646L256.07370087808 153.31440909745L405.64226284727 3.7605873038721L347.74285303008 -54.146192601123L511.77889736577 -63.786267453577L502.13882251332 100.24977688211Z"/><glyph unicode="&#xE01B;" glyph-name="new63" horiz-adv-x="626" d="M568.8914788679 448H56.891478867896C25.524243114045 448 0 422.44467713787 0 391.11629106913v-398.21704226421c0 -31.390545564914 25.524243114045 -56.891478867896 56.891478867896 -56.891478867896h512c31.351695879809 0 56.883708930875 25.500933302982 56.883708930875 56.891478867896 V391.11629106913C625.77518779877 422.44467713787 600.2431747477 448 568.8914788679 448zM312.89536383641 228.05639274604L103.79858866378 391.11629106913h418.17024053418L312.89536383641 228.05639274604zM236.73444115639 215.2903862205L56.891478867896 35.408574246908V355.52220957584 L236.73444115639 215.2903862205zM281.93216480765 180.04595189316l13.449760983383 -10.489414978375c5.1359283708931 -4.0015175658244 11.336338113666 -5.9906214432051 17.505668108354 -5.9906214432051c6.1615600576675 0 12.354199863419 1.9968738144017 17.497898171333 5.9906214432051l12.462978981713 9.7124212762729 l186.36970938614 -186.36970938614H94.824311404507L281.93216480765 180.04595189316zM388.0461947037 214.5133925184l180.83751422718 141.00881705744l0.023309811063055 -321.8774110327L388.0461947037 214.5133925184z"/><glyph unicode="&#xE01C;" glyph-name="open191" horiz-adv-x="536" d="M486.11928144959 448c-1.8115170987421 0 -3.5963942401499 -0.23975961600999 -5.3612914135567 -0.61937900802581L268.14449054984 399.68177738465L55.524331074314 447.38062099197C53.76609389024 447.76024038399 51.954576791498 448 50.143059692756 448 C22.051224683585 448 0 422.57882071361 0 390.09805273359V42.673049156445c0 -31.235349974635 20.386227350183 -55.950570391665 46.952924801956 -57.815367405076l215.1909153583 -48.284922668679c1.7582371840733 -0.37961939201582 3.543114325481 -0.57275908269053 5.3546314242231 -0.57275908269053 c0.21311965867555 0 0.42623931735109 0.046619925335276 0.63935897602664 0.053279914668887c0.21977964800916 -0.0066599893336108 0.42623931735109 -0.053279914668887 0.64601896536025 -0.053279914668887c1.7848771414077 0 3.5697542828154 0.19313969067471 5.3612914135567 0.57275908269053l215.1909153583 48.284922668679 c26.566697451774 1.8581370240774 46.952924801956 26.573357441107 46.952924801956 57.815367405076V390.09805273359C536.28232111035 422.57882071361 514.23775641609 448 486.11928144959 448zM243.04965074079 -9.1416678590476L55.524331074314 32.909504793371 c-0.75923878403164 0.1864797013411 -1.1921380907163 0.23975961600999 -1.5717574827322 0.23975961600999c-0.47285924268637 0 -0.90575854937107 -0.099899840004162 -1.9047569494127 -0.099899840004162c-0.8591386240358 0.61937900802581 -3.1901348907996 3.9493736748312 -3.1901348907996 9.617024597734V390.09805273359 c0 4.2424132055101 1.3319978667222 7.1927884802997 1.5251375573969 8.4781664216866l192.66683143203 -43.236650753802V-9.1416678590476zM487.40465939098 42.673049156445c0 -5.6743109122364 -2.3309962667638 -9.0043055790418 -1.2787179520533 -9.1441653550477 c-1.8115170987421 0 -3.5963942401499 -0.1864797013411 -5.3612914135567 -0.61937900802581l-187.54529963448 -42.044512663085V355.33956840147l192.07409238134 43.096790977796c0.97235844270718 -1.5717574827322 2.1112166187546 -4.3822729815159 2.1112166187546 -8.3383066456808V42.673049156445zM195.47734693081 304.76360940203 l-97.735343470739 24.375560961016v-48.757781911365l97.735343470739 -24.382220950349V304.76360940203zM195.47734693081 207.24138558997l-97.735343470739 24.382220950349v-48.764441900699l97.735343470739 -24.375560961016V207.24138558997zM195.47734693081 109.71250178857l-97.735343470739 24.382220950349 v-48.757781911365l97.735343470739 -24.382220950349V109.71250178857zM341.43101317689 255.99916750133l97.761983428073 24.382220950349v48.757781911365l-97.761983428073 -24.375560961016V255.99916750133zM341.43101317689 158.47694368927l97.761983428073 24.375560961016v48.764441900699 L341.43101317689 207.24138558997V158.47694368927zM341.43101317689 60.954719877206l97.761983428073 24.382220950349v48.757781911365l-97.761983428073 -24.382220950349V60.954719877206z"/><glyph unicode="&#xE01D;" glyph-name="pause29" horiz-adv-x="512" d="M256.00291375955 448C114.83126372938 448 0 333.16290875152 0 191.99708624045c0 -141.17165003016 114.83126372938 -256.00291375955 256.00291375955 -256.00291375955s256.00291375955 114.83126372938 256.00291375955 256.00291375955 C512 333.16290875152 397.16873627062 448 256.00291375955 448zM256.00291375955 -17.461432522565C140.50148533446 -17.461432522565 46.538567477435 76.495657815363 46.538567477435 191.99708624045c0 115.45480827235 93.962917857021 209.45269124392 209.45851876302 209.45269124392 c115.50142842509 0 209.45851876302 -93.997882971579 209.45851876302 -209.45269124392C465.46143252256 76.495657815363 371.50434218464 -17.461432522565 256.00291375955 -17.461432522565zM186.1892350243 122.16592494793h46.538567477435V261.83407505207H186.1892350243V122.16592494793zM279.27219749826 122.16592494793h46.544394996529V261.83407505207h-46.544394996529V122.16592494793z"/><glyph unicode="&#xE01E;" glyph-name="phone336" horiz-adv-x="512" d="M0 308.36305843204h139.63694156796V448H0V308.36305843204zM186.17835059227 308.36305843204h139.63694156796V448H186.17835059227V308.36305843204zM372.35670118453 448v-139.63694156796h139.63694156796V448H372.35670118453zM0 122.18470783978 h139.63694156796V261.81529216022H0V122.18470783978zM186.17835059227 122.18470783978h139.63694156796V261.81529216022H186.17835059227V122.18470783978zM372.35670118453 122.18470783978h139.63694156796V261.81529216022H372.35670118453V122.18470783978zM0 -64 h139.63694156796V75.636941567955H0V-64zM186.17835059227 -64h139.63694156796V75.636941567955H186.17835059227V-64zM372.35670118453 -64h139.63694156796V75.636941567955H372.35670118453V-64z"/><glyph unicode="&#xE01F;" glyph-name="photo154" horiz-adv-x="513" d="M465.09150619495 364.61561427079h-47.367069711897V424.18589839279c0 13.158580882719 -10.45170921033 23.814101607205 -23.310941931632 23.814101607205H277.833308454c-12.884709160571 0 -23.310941931632 -10.655520724486 -23.310941931632 -23.814101607205v-59.570284122008H47.863860277653 C21.476638304225 364.61561427079 0 343.25998905309 0 317.0319948251v-333.39742250087c0 -26.227994227994 21.476638304225 -47.634572324227 47.863860277653 -47.634572324227h417.23401502712c26.393591083246 0 47.863860277653 21.400208986416 47.863860277653 47.634572324227V317.0319948251 C512.95536647261 343.25998905309 491.4850972782 364.61561427079 465.09150619495 364.61561427079zM301.15061949545 400.36542767577h69.94556401453v-35.743444295168H301.15061949545V400.36542767577zM465.09150619495 -16.365427675773H46.628252973081l1.2292381947554 333.39742250087h418.45688411206 l0.12101308653033 -332.8942628253C466.43538836642 -15.906851768921 466.07234910683 -16.365427675773 465.09150619495 -16.365427675773zM256.4776832363 257.46171070309c-57.856993581132 0 -104.91834602179 -48.04219535254 -104.91834602179 -107.14753445788 c0 -59.060755336617 47.061352440663 -107.1539035677 104.91834602179 -107.1539035677s104.93108424143 48.093148231079 104.93108424143 107.1539035677C361.40239836792 209.41951535055 314.33467681744 257.46171070309 256.4776832363 257.46171070309zM256.4776832363 90.788475891924 c-32.125789918893 0 -58.283723938896 26.680201025029 -58.283723938896 59.525700353287c0 32.826391998806 26.157934020003 59.563915012191 58.283723938896 59.563915012191c32.132159028711 0 58.290093048714 -26.731153903568 58.290093048714 -59.563915012191 C314.76777628502 117.46867691695 288.6034731552 90.788475891924 256.4776832363 90.788475891924z"/><glyph unicode="&#xE020;" glyph-name="play69" horiz-adv-x="512" d="M256.00291375955 448C114.83126372938 448 0 333.16290875152 0 191.99708624045c0 -141.17165003016 114.83126372938 -256.00291375955 256.00291375955 -256.00291375955s256.00291375955 114.83126372938 256.00291375955 256.00291375955 C512 333.16290875152 397.16873627062 448 256.00291375955 448zM256.00291375955 -17.461432522565c-115.50142842509 0 -209.45851876302 93.957090337928 -209.45851876302 209.45851876302c0 115.45480827235 93.957090337928 209.45269124392 209.45851876302 209.45269124392 c115.495600906 0 209.45851876302 -93.997882971579 209.45851876302 -209.45269124392C465.46143252256 76.495657815363 371.49851466554 -17.461432522565 256.00291375955 -17.461432522565zM221.08441935374 122.16592494793L325.8107649757 191.99708624045L221.08441935374 261.83407505207 V122.16592494793z"/><glyph unicode="&#xE021;" glyph-name="power91" horiz-adv-x="469" d="M256.00291375955 448h-42.669094799622v-169.16705175338h42.669094799622V448zM450.89846230893 259.12427867378c-11.812381201698 27.709853287654 -28.735496648038 52.540912143321 -50.291489773387 73.916252176783 c-21.585130720814 21.375340033463 -46.672600416577 38.129457426103 -74.586416872489 49.836943284126l-16.631739491686 -38.916172503671c22.838047325829 -9.5862689081369 43.374224609886 -23.333386448742 61.066572576515 -40.792633651646c17.622417737511 -17.500039836556 31.480258140885 -37.873046586007 41.148112316325 -60.542095858136 c10.00585028284 -23.420799235138 15.064136855644 -48.333443358108 15.064136855644 -74.044457596831c0 -25.70518671963 -5.0582865728042 -50.664450995345 -15.064136855644 -74.085250230483c-9.6620266563471 -22.622429119384 -23.519867059721 -43.001263387928 -41.124802239953 -60.495475705392 c-17.709830523908 -17.505867355649 -38.246007807965 -31.206364743509 -61.084055133794 -40.792633651646c-47.2436972877 -19.790254840142 -102.08647947279 -19.836874992886 -149.45255466145 0c-22.878839959481 9.6212340226955 -43.415017243538 23.333386448742 -61.043262500142 40.792633651646 c-17.587452622953 17.453419683812 -31.439465507233 37.785633799611 -41.130629759046 60.542095858136c-10.023332840119 23.374179082393 -15.104929489295 48.292650724456 -15.104929489295 74.038630077738c0 25.751806872375 5.0815966491765 50.664450995345 15.104929489295 74.044457596831 c9.6911642518126 22.744807020339 23.543177136093 43.082848655232 41.153939835418 60.542095858136c17.604935180232 17.459247202905 38.141112464289 31.171399628951 61.01995242377 40.792633651646l-16.631739491686 38.916172503671c-27.977919165936 -11.754106010767 -53.059561342606 -28.502395884315 -74.539796719744 -49.836943284126 c-21.515200491697 -21.287927247066 -38.438315938037 -46.165606255478 -50.291489773387 -73.916252176783C6.2237903914226 230.49950488851 0 200.03906258892 0 168.58211452441s6.2237903914226 -61.917390364106 18.479063044196 -90.542164149376 c11.85317383535 -27.750645921306 28.77628928169 -52.663290044275 50.268179697015 -73.916252176783c21.497717934418 -21.334547399811 46.58518763018 -38.082837273358 74.563106796117 -49.877735917777c28.986079969041 -12.127067232725 59.708760627824 -18.251789799565 91.358016822409 -18.251789799565 c31.690048828236 0 62.436039563391 6.1247225668401 91.358016822409 18.292582433217c27.913816455912 11.666693224371 53.001286151675 28.461603250663 74.603899429768 49.836943284126c21.538510568069 21.328719880718 38.461626014409 46.212226408222 50.274007216108 73.916252176783 c12.231962576401 28.671393938014 18.432442891451 59.126008718515 18.432442891451 90.542164149376C469.33090520038 199.99826995527 463.13042488533 230.45871225486 450.89846230893 259.12427867378z"/><glyph unicode="&#xE022;" glyph-name="rectangular76" horiz-adv-x="490" d="M444.04589182641 448H45.69799757714C20.504810090501 448 0 427.99990498587 0 403.48169790256v-333.91462980118c0 -24.56685431958 20.504810090501 -44.518302097437 45.69799757714 -44.518302097437h165.78978122996l60.109741324022 -80.176726288035 c4.1897432243046 -5.5640276491128 10.781443739756 -8.8720397159077 17.804888477161 -8.8720397159077c6.9930402147319 0 13.609064348322 3.3080120667949 17.804888477161 8.8720397159077l60.109741324022 80.176726288035h76.741015226015c25.199268391173 0 45.69799757714 19.951447777857 45.69799757714 44.518302097437V403.48169790256 C489.74388940355 427.99990498587 469.24516021758 448 444.04589182641 448zM444.04589182641 69.56706810138h-87.86907052424c-7.0173638328701 0 -13.609064348322 -3.3080120667949 -17.804888477161 -8.9146060476496l-48.981686025796 -65.302833796527l-48.981686025796 65.302833796527 c-4.1897432243046 5.6065939808547 -10.805767357894 8.9146060476496 -17.804888477161 8.9146060476496H44.518302097437L45.69799757714 403.48169790256h399.52150882444L444.04589182641 69.56706810138zM400.70120430414 349.22178674078H89.048766003943v-44.524383001972h311.6524383002V349.22178674078zM400.70120430414 260.17302073683H89.048766003943v-44.518302097437h311.6524383002V260.17302073683zM400.70120430414 171.13033563743H89.048766003943v-44.518302097437h311.6524383002V171.13033563743z"/><glyph unicode="&#xE023;" glyph-name="recycle56" horiz-adv-x="445" d="M399.51676385705 448H45.697454839131C20.498485730234 448 0 428.00014251951 0 403.47614579746v-66.779700471502c0 -24.177389280158 19.8721600019 -43.848881815699 44.51777337023 -44.463045879405c0 -0.018242496941769 0 -0.042565826197461 0 -0.06080832313923v-311.64873692087 c0 -24.566562548249 20.498485730234 -44.523854202544 45.697454839131 -44.523854202544H354.99899048682c25.198969108897 0 45.697454839131 19.957291654295 45.697454839131 44.523854202544V292.17259112341c0 0.018242496941769 -0.006080832313923 0.042565826197461 -0.006080832313923 0.06080832313923 c24.657775032958 0.61416406370622 44.523854202544 20.285656599247 44.523854202544 44.463045879405V403.47614579746C445.21421869618 428.00014251951 424.71573296595 448 399.51676385705 448zM354.99899048682 -19.476145797456H89.047708405088l1.1675198042732 311.64873692087h265.95736291405 l0.10945498165061 -311.21699782658C356.28204610506 -19.044406703167 355.92935783085 -19.476145797456 354.99899048682 -19.476145797456zM399.51676385705 336.69036449364H44.51777337023L45.697454839131 403.47614579746h354.99899048682l0.10945498165061 -66.3418805449 C400.79981947529 337.13426525256 400.44713120108 336.69036449364 399.51676385705 336.69036449364zM155.82740887659 36.169550707253h44.51777337023V236.52081378639h-44.51777337023V36.169550707253zM244.86903644936 36.169550707253h44.523854202544V236.52081378639h-44.523854202544 V36.169550707253z"/><glyph unicode="&#xE024;" glyph-name="search69" horiz-adv-x="512" d="M512.22269998882 -26.923633290666L373.41697838866 112.52473684865c26.685821516895 35.148421091876 42.580237861484 78.994867461195 42.580237861484 126.51904507438C415.99721625014 354.23694185194 322.69228379336 448 207.99542669666 448S0 354.23694185194 0 239.04378192302 c0 -115.23769992668 93.304932456784 -209.00712093156 207.99542669666 -209.00712093156c48.631314700436 0 93.37492388184 16.899747722669 128.82876210123 45.099929163508l138.50030447264 -139.13659015497L512.22269998882 -26.923633290666zM207.99542669666 77.077261486075 c-88.870021250948 0 -161.18388904768 72.657462065194 -161.18388904768 161.96652043695c0 89.251792660345 72.313867796737 161.90925472554 161.18388904768 161.90925472554c88.876384107771 0 161.19025190451 -72.657462065194 161.19025190451 -161.90925472554 C369.18567860117 149.73472355127 296.87181080443 77.077261486075 207.99542669666 77.077261486075z"/><glyph unicode="&#xE025;" glyph-name="speaker69" horiz-adv-x="563" d="M357.74740055577 445.35486816871c-8.0957065139398 4.1547272703552 -17.81456210617 3.3932499249847 -25.122072771392 -2.0974025126874l-173.26949420099 -128.95685640109H49.409192313212c-12.9451148713 0 -25.215587533105 -4.9162046157258 -34.553704452649 -13.893621740095 C5.2835840367379 291.08890947281 0 278.66480541676 0 265.39238887947v-146.81149626228c0 -13.272416537292 5.2835840367379 -25.689840967502 14.902245241419 -35.0012393837c9.2913595386883 -8.9774171243689 21.561832200493 -13.900301365931 34.506947071793 -13.900301365931h109.93996164434l173.26949420099 -128.95017677525 c4.2014846512113 -3.1060260140116 9.2178836544859 -4.7291750923015 14.23428265776 -4.7291750923015c3.7005127134675 0 7.4477828077912 0.90842911377542 10.887790113632 2.6718503346336c8.0689880105935 4.1547272703552 13.185581401417 12.564376198615 13.185581401417 21.775580227264V423.52585093476 C370.92630233135 432.74373458924 365.81638856636 441.19346127252 357.74740055577 445.35486816871zM322.78623892709 8.687688353707L181.43867659913 113.85839715072c-4.1280087670089 3.1060260140116 -9.0976503894274 4.7224954664649 -14.207564154414 4.7224954664649H48.146743030097v73.409087944058 l1.2624492831144 73.402408318222h117.82192013151c5.1099137649868 0 10.079555387405 1.6231490782899 14.207564154414 4.7291750923015l141.34756232795 105.16402917118V8.687688353707zM418.77914182463 69.672672241719h48.140063404261V314.2939296291h-48.140063404261V69.672672241719zM515.05926863316 363.24890738542v-342.53121290003h48.120024526751v342.53121290003H515.05926863316z"/><glyph unicode="&#xE026;" glyph-name="speaker70" horiz-adv-x="368" d="M354.88442119271 445.3614789495c-7.9957207530431 4.1548356795262 -17.648031937794 3.3399000639278 -24.908974676773 -2.0573784393795L158.09082962596 314.35723884199H49.02973293846c-12.898694046889 0 -25.055930279586 -4.9697712951245 -34.220616055004 -13.900664066067 C5.2770421010059 291.15161319782 0 278.72718496001 0 265.40098370494v-146.76856840924c0 -13.326201255072 5.2770421010059 -25.79070829365 14.782397682944 -35.008832470091c9.1914049759292 -8.9843311719657 21.348641208626 -13.947422666962 34.247335255515 -13.947422666962h109.0610966875l171.88461688998 -128.95354146825 c4.1748750799097 -3.1061070594528 9.1179271745228 -4.7292984905217 14.114417670159 -4.7292984905217c3.6738900703206 0 7.3744993411525 0.90845281738835 10.787877206487 2.6719200511422c8.0224399535545 4.1548356795262 13.085728450469 12.564704040496 13.085728450469 21.776148416809V423.53857193179 C367.97014964318 432.75669610823 362.90686114626 441.20664326997 354.88442119271 445.3614789495zM320.21625852914 8.6895849913241L180.00725384545 113.90311680518c-4.1080770786312 3.0593484585578 -9.0310897728607 4.7292984905217 -14.114417670159 4.7292984905217H47.753891114039V191.99666009994 l1.2691620242926 73.404323605005h116.86310323683c5.0900076974259 0 10.006340591528 1.6699500319639 14.114417670159 4.7292984905217l140.20232488356 105.16677321296V8.6895849913241z"/><glyph unicode="&#xE027;" glyph-name="square139" horiz-adv-x="450" d="M408.03876544288 359.01968830488h-80.743877417383V427.86152704413C327.29488802549 439.00921115816 318.1252892129 448 306.83790980923 448H143.19325970227c-11.304142838434 0 -20.456978216266 -8.9907888418387 -20.456978216266 -20.138472955865v-68.84183873925H41.992404068625 C18.836512856332 359.01968830488 0 340.96546907059 0 318.74833020474V-23.72305408827c0 -22.222726677435 18.836512856332 -40.27694591173 41.992404068625 -40.27694591173h366.05194918584c23.150303400707 0 41.992404068625 18.054219234295 41.992404068625 40.27694591173V318.74833020474 C450.0311695115 340.96546907059 431.18906884358 359.01968830488 408.03876544288 359.01968830488zM163.65023791854 407.72305408827h122.73628148601v-48.703365783385H163.65023791854V407.72305408827zM408.03876544288 -23.72305408827H40.913956432532l1.0728598245078 342.47138429301h80.743877417383 v-78.218186580521c-12.22613175012 -6.9680010477147 -20.45139040468 -19.948487361942 -20.45139040468 -34.884707731261c0 -22.256253546951 18.294495132492 -40.27694591173 40.908368620946 -40.27694591173s40.908368620946 18.020692364779 40.908368620946 40.27694591173 c0 14.936220369319 -8.2364342777317 27.916706683547 -20.45139040468 34.884707731261V318.74833020474h122.73628148601v-78.218186580521c-12.22613175012 -6.9680010477147 -20.456978216266 -19.948487361942 -20.456978216266 -34.884707731261c0 -22.256253546951 18.294495132492 -40.27694591173 40.908368620946 -40.27694591173 s40.913956432532 18.020692364779 40.913956432532 40.27694591173c0 14.936220369319 -8.2420220893177 27.916706683547 -20.456978216266 34.884707731261V318.74833020474h81.827912865063l0.10058060854761 -342.0355349893C409.21779368752 -23.326319465666 408.89928842712 -23.72305408827 408.03876544288 -23.72305408827z"/><glyph unicode="&#xE028;" glyph-name="square140" horiz-adv-x="536" d="M487.62412196264 448H48.758416150684C21.851709246059 448 0 426.09501014621 0 399.24158384932v-414.48316769863c0 -26.900046828659 21.851709246059 -48.751756074718 48.758416150684 -48.751756074718h438.86570581196c26.88006660076 0 48.758416150684 21.851709246059 48.758416150684 48.751756074718 V399.24158384932C536.38253811333 426.09501014621 514.5041885634 448 487.62412196264 448zM48.758416150684 263.04303033456h142.0927207451v-278.29127425985H48.758416150684V263.04303033456zM239.6228731984 -15.248243925282V263.04303033456h247.97460846038l0.026640303865966 48.765076226651 H48.758416150684V399.24158384932h438.86570581196l0.019980227899474 -414.48316769863H239.6228731984z"/><glyph unicode="&#xE029;" glyph-name="stop33" horiz-adv-x="512" d="M256.00291375955 448C114.83709124848 448 0 333.16290875152 0 191.99708624045c0 -141.17165003016 114.83709124848 -256.00291375955 256.00291375955 -256.00291375955c141.17165003016 0 256.00291375955 114.83126372938 256.00291375955 256.00291375955 C512 333.16290875152 397.16873627062 448 256.00291375955 448zM256.00291375955 -17.461432522565C140.50148533446 -17.461432522565 46.544394996529 76.495657815363 46.544394996529 191.99708624045c0 115.45480827235 93.957090337928 209.45269124392 209.45269124392 209.45269124392 c115.50142842509 0 209.45851876302 -93.997882971579 209.45851876302 -209.45269124392C465.46143252256 76.495657815363 371.50434218464 -17.461432522565 256.00291375955 -17.461432522565zM186.1892350243 122.16592494793h139.6215299514V261.83407505207H186.1892350243V122.16592494793z"/><glyph unicode="&#xE02A;" glyph-name="tablet76" horiz-adv-x="328" d="M286.85052143685 448H40.975447648615C18.363672139749 448 0 429.50759745513 0 406.73910667046v-429.47261636678c0 -22.76849078467 18.363672139749 -41.260893329544 40.975447648615 -41.260893329544h245.87507378823c22.589387612322 0 40.975447648615 18.492402544874 40.975447648615 41.260893329544 V406.73910667046C327.82596908546 429.50759745513 309.43990904917 448 286.85052143685 448zM143.42246223136 -1.4090382387022c0 11.406633288878 9.1678436345351 20.647237587179 20.490522311375 20.647237587179s20.490522311375 -9.2406042983012 20.490522311375 -20.647237587179 c0 -11.361857495791 -9.1678436345351 -20.608058768228 -20.490522311375 -20.608058768228S143.42246223136 -12.770895734494 143.42246223136 -1.4090382387022zM40.975447648615 57.778963247994V365.522989134h245.87507378823l0.011193948271716 -307.73842891187H40.975447648615z"/><glyph unicode="&#xE02B;" glyph-name="text103" horiz-adv-x="469" d="M277.97098613023 340.57722809453H85.536255959221v-42.444811068507h192.43473017101V340.57722809453zM85.536255959221 213.24279488901h299.33902991273v42.444811068507H85.536255959221V213.24279488901zM85.536255959221 128.31239404249h299.33902991273v42.444811068507 H85.536255959221V128.31239404249zM85.536255959221 43.428597435401h299.33902991273v42.444811068507H85.536255959221V43.428597435401zM462.79757421293 384.30948127752l-57.894116442331 57.474678287385C400.88384211904 445.79212415661 395.44862269454 448 389.78620760277 448H42.776866274505 C19.183470058824 448 0 428.96216818942 0 405.55518893149v-427.10455233306c0 -23.412804787857 19.183470058824 -42.444811068507 42.776866274505 -42.444811068507h383.51211186838c23.599221745611 0 42.776866274505 19.037831810579 42.776866274505 42.444811068507V369.31456723822 C469.07166994732 374.94202915041 466.82301539442 380.35394645519 462.79757421293 384.30948127752zM42.776866274505 -21.555188931493V405.55518893149h275.97282936431v-86.223668490937c0 -11.703489628964 9.5829967345174 -21.204928944464 21.385520372288 -21.204928944464h86.165413191639 l0.034953179578787 -319.68178042758H42.776866274505z"/><glyph unicode="&#xE02C;" glyph-name="triptych2" horiz-adv-x="590" d="M541.6163596047 396.54630567494L397.65534233075 445.02855265679C391.83859399381 448 385.11779681897 448.80593501054 378.74740617044 447.00484546525L206.43850091708 397.8077691697L61.28610145364 446.66144706945 C58.630019984122 447.50943086315 55.82676777355 447.95795121684 52.995483040872 447.95795121684C23.785595006707 447.95795121684 0 425.00632374278 0 396.79159024337v-358.3747707301c0 -26.609871608859 21.150537928769 -48.552328287114 48.103807933423 -50.95611705768l148.7756029456 -50.059076350297 l0.16819513263435 0.50458539790304c3.0345205179446 -1.1843740589668 6.2512524295765 -1.8641627200307 9.4960168633141 -1.8641627200307c2.3827643789866 0 4.7865531495524 0.30134961263654 7.1412850064332 1.0091707958061l170.83719784281 48.727531550275l143.93999288237 -48.426181937639 c2.6841139916231 -0.90404883790961 5.4663418106162 -1.3525691916012 8.2976265432944 -1.3525691916012c29.188863642585 0 52.946426127187 23.000684387747 52.946426127187 51.215417887158l0.049056913685017 358.46587642695C589.65008623286 372.24210900928 568.47852391251 394.13550877385 541.6163596047 396.54630567494zM51.635905718744 38.42382764379l1.3525691916012 356.92408771113l127.73018697473 -42.966848257549v-355.50143721427L61.28610145364 37.071258452189C58.630019984122 37.968299159572 54.467190451422 38.42382764379 51.635905718744 38.42382764379zM360.07774644803 32.109502039476 l-127.72317884421 -36.477319390074V351.89750609105L360.07774644803 388.37482548112V32.109502039476zM536.75972514988 -11.382956007556l-125.04607298311 42.097840072271V386.21632127898L528.4130416929 346.94275780886c2.6841139916231 -0.90404883790961 6.8889923074817 -1.3525691916012 9.6992526485806 -1.3525691916012 L536.75972514988 -11.382956007556z"/><glyph unicode="&#xE02D;" glyph-name="two278" horiz-adv-x="563" d="M563.25174825175 38.405594405594L448.14685314685 140.7972027972v-76.797202797203H0.55244755244755v-51.195804195804h447.59440559441v-76.797202797203L563.25174825175 38.405594405594zM115.0979020979 319.94405594406h447.6013986014v51.202797202797H115.0979020979V448 L0 345.55244755245l115.0979020979 -102.40559440559V319.94405594406z"/><glyph unicode="&#xE02E;" glyph-name="upload76" horiz-adv-x="490" d="M222.62826192823 47.399270705895h44.522003539571V347.73579123659h66.78604601442L244.89838581321 448L155.84221591382 347.73579123659h66.78604601442V47.399270705895zM486.00197170719 221.19989072466 c-2.3960755900274 5.3029896307206 -5.7834210307515 10.082977990522 -10.003919658871 14.041975983181c-4.1353588863418 4.0015678635484 -9.0004869879203 7.0909242080507 -14.455511871815 9.3532087752848c-5.5462460357996 2.2136332862182 -11.414806808329 3.3447755698353 -17.45972847454 3.3447755698353H344.48755805252v-44.56457341046 h100.76896580395v-211.67564228956l-1.1737121545058 -11.128980532361H44.528084949698V125.40551840458l1.1676307443789 77.963677827796h99.601335059567v44.56457341046H45.701797104204c-6.0388402560844 0 -11.91348243874 -1.131142283617 -17.52054257581 -3.3873454407241 c-5.4185364231331 -2.2197146963452 -10.24717606395 -5.3090710408476 -14.327802259149 -9.2254991626183c-4.2813127293891 -4.0441377344372 -7.6747395802402 -8.8241260942381 -10.131629271537 -14.309558028768C1.2588518962835 215.41646969391 0 209.49925764037 0 203.36919623238v-222.80462282192 c0 -6.130061407989 1.2588518962835 -12.041192051407 3.7826370989773 -17.78204321127c2.3960755900274 -5.3516409117364 5.7834210307515 -10.131629271537 9.98567542849 -14.090627264197c4.1718473471036 -3.9954864534214 8.9944055777934 -7.0848427979238 14.479837512323 -9.304557494269 c5.5401646256726 -2.2562031571071 11.414806808329 -3.393426850851 17.453647064413 -3.393426850851h398.38709600789c6.0449216662114 0 11.91348243874 1.137223693744 17.52054257581 3.393426850851c5.3942107826252 2.2197146963452 10.265420294331 5.3090710408476 14.327802259149 9.2254991626183 c4.2813127293891 4.0441377344372 7.6747395802402 8.8241260942381 10.131629271537 14.309558028768c2.4568896912972 5.6070601370693 3.7157415875806 11.524272190614 3.7157415875806 17.648252188476V203.36919623238C489.78460880617 209.49925764037 488.52575690988 215.41646969391 486.00197170719 221.19989072466z"/><glyph unicode="&#xE02F;" glyph-name="user137" horiz-adv-x="365" d="M294.21611492817 174.23110555903c30.720799500312 28.975223818447 49.908806995628 69.689777222569 49.908806995628 114.76160732875C344.1249219238 376.69123464501 271.58359358734 448 182.42598376015 448C93.248386425151 448 20.693733083489 376.69123464501 20.693733083489 288.99271288778 c0 -45.085155111389 19.201332500521 -85.813033520716 49.94211950864 -114.78825733916C39.375390381012 146.94815740162 0 87.458671663544 0 -39.561940453883c0 -13.531542785759 11.126379346242 -24.438059546117 24.89110972309 -24.438059546117h157.53487403706v48.929419113054H50.328544659588 c5.1900895273787 112.96273162607 46.177805538205 149.69977097647 63.260462211118 160.16656256506c20.906933166771 -9.7072662919009 44.232354778264 -15.163855923381 68.836976889444 -15.163855923381c24.611284613783 0 47.943368727878 5.4565896314803 68.850301894649 15.177180928586 c17.07599417031 -10.453466583385 58.083697688944 -47.170518425984 63.293774724131 -160.17988757027H182.47262127837v-48.929419113054h157.54153653966c13.738080366438 0 24.86445971268 10.906516760358 24.86445971268 24.438059546117 C364.87861753071 87.498646679159 325.48323964189 146.98813241724 294.21611492817 174.23110555903zM70.455965021861 288.99271288778c0 60.688736206538 50.22860712055 110.08453050177 111.97001873829 110.08453050177s111.95003123048 -49.395794295232 111.95003123048 -110.08453050177 c0 -60.735373724755 -50.208619612742 -110.08453050177 -111.95003123048 -110.08453050177S70.455965021861 228.25733916302 70.455965021861 288.99271288778z"/></font>
</defs>
</svg>
